<svg xmlns="http://www.w3.org/2000/svg" width="330.35" height="573.02" viewBox="0 0 330.35 573.02"><defs><style>.cls-1{opacity:0.24;}.cls-2{fill:#0095f1;}</style></defs><g id="レイヤー_2" data-name="レイヤー 2"><g id="レイヤー_1-2" data-name="レイヤー 1"><g class="cls-1"><path class="cls-2" d="M316.59,275.25c.72-.26,2.85.08,3.25,0s.74-1.31,1.06-1.39,1.71.73,2.37,0,.08-1.79,2-1.95,1.47,1.3,1.79,2.2,1.31,2,1.22,2.68a1.89,1.89,0,0,1-1.22,1.47c-.49.08-1.3-1.38-1.87-1.22s-.9,1.3-2.2,2.69-4.32,1.95-6.43,2.93-1.71-.33-2.37,0,0,2.44-1,2.44-2.69.57-2.85-1.14-.66-3.67,2-5.42S314.55,276,316.59,275.25Z"/><path class="cls-2" d="M320.25,286.65c1.1-1,3.59.24,4.16,0s1.87-2.53,3.09-2.77,2.85-1.14,2.85,0-1.46,2.69-1.55,3.58.26,1.71-.48,2.2-1.8.08-2.45.74-1.06,2.44-2,2.52-2-1.14-2.61-1.3-1.69.16-1.94-.9.15-1.13.55-2.6S319,287.79,320.25,286.65Z"/><path class="cls-2" d="M75,361a13.28,13.28,0,0,0,4.1,5.81,9.09,9.09,0,0,1,2.14,2.93,45.81,45.81,0,0,1,3,8.13,4.62,4.62,0,0,1-1.51,5.1c-.94.78-1.93,1.5-2.94,2.19a10.61,10.61,0,0,0-4.08,5.76,47.59,47.59,0,0,0-1.36,4.8,6,6,0,0,0,.59,4.72,18.61,18.61,0,0,1,2.62,6.67,15.93,15.93,0,0,1,0,5.76c-.3,1.61-.57,3.22-.92,4.82a10.21,10.21,0,0,0,.22,3.53,7.54,7.54,0,0,1,.06,2.17,19.83,19.83,0,0,0-.08,6.87,49.31,49.31,0,0,0,1.75,5.87c.27.86.61,1.69.84,2.55a5.32,5.32,0,0,1,0,1.28,9.86,9.86,0,0,1-1.35,0,3,3,0,0,0-3.26,1.86,30.26,30.26,0,0,0-2.53,6.72,4.92,4.92,0,0,0,.7,4.25c1.08,1.49.72,3.05.55,4.6a8.37,8.37,0,0,1-.68,1.95,1.39,1.39,0,0,1-1.6.85,4.27,4.27,0,0,1-2.5-.92,9.08,9.08,0,0,0-6.66-1.81c-2.17.14-4.35,0-6.53.05a4.7,4.7,0,0,0-2,.48,17.51,17.51,0,0,0-8.63,9.41,15.13,15.13,0,0,1-4.53,6.07,28.35,28.35,0,0,1-6.24,4.23,5.41,5.41,0,0,1-3.21.5,15.43,15.43,0,0,0-8.07.93,7.22,7.22,0,0,0-3.55,3.37,15.92,15.92,0,0,1-3.58,4.41,3.31,3.31,0,0,0-1.17,2.21c-.27,1.78-.63,3.54-.86,5.32-.14,1.05-.12,2.13-.18,3.2,0,.2,0,.4-.09.67a8,8,0,0,0-.77.29,2.9,2.9,0,0,0-1.71,2c-.59,2.29-1.35,4.54-2.13,6.78a6.46,6.46,0,0,1-2.42,3c-1.27.95-2.55,1.88-3.9,2.73a2.16,2.16,0,0,0-1.15,2.1,32.62,32.62,0,0,1,0,3.7c-.17,2.24-.42,4.48-.69,6.72,0,.34-.43.64-.65,1v5.18a5.38,5.38,0,0,1,.66,1.13c.39,1.41.65,2.85,1.07,4.25a31.87,31.87,0,0,0,1.19,3c1.78-.37,2.75,1,4,1.72.06,0,.09.14.16.18,3.72,2.1,5.33,5.78,7,9.4.22.48.36,1,.55,1.49a6.48,6.48,0,0,0,2.36,3,7.37,7.37,0,0,1,1.66,1.59,4.29,4.29,0,0,0,2.39,1.57,17.83,17.83,0,0,1,2.71,1,4.3,4.3,0,0,1,2.7,4.1,7.39,7.39,0,0,0,2,5.24,8.12,8.12,0,0,0,3.32,2q2.35.79,4.74,1.47a2.8,2.8,0,0,0,3-.7c.89-1,2.18-1.21,3.32-1.67.43-.17,1,.1,1.56.15.9.08,1.79.15,2.69.21a.71.71,0,0,0,.8-.61c.15-.59.32-1.18.45-1.78.5-2.32,1-4.63,1.48-6.94.37-1.71.68-3.44,1.16-5.12a20.24,20.24,0,0,1,2.5-6.19,58.77,58.77,0,0,0,3.48-6.14c1.37-2.64,2.65-5.33,3.94-8,1.15-2.37,2.19-4.79,3.41-7.12a54.94,54.94,0,0,1,2.93-4.8q3.84-5.86,7.77-11.67c.84-1.24,1.82-2.38,2.76-3.54a2.43,2.43,0,0,1,1.6-.81c1.49-.25,3-.59,4.46-.89A2.44,2.44,0,0,0,85.49,506c1.3-2.06,2.64-4.09,3.92-6.16a2.46,2.46,0,0,1,2.31-1.31c2.09,0,4.18,0,6.27.05a1.87,1.87,0,0,0,1.75-.79c1.21-1.54,2.45-3.05,3.69-4.56a11.35,11.35,0,0,1,.85-.84l3,1.75c.86.5,1.1.5,1.63-.28.87-1.28,1.66-2.6,2.47-3.92a1.57,1.57,0,0,0,.22-.81,19.49,19.49,0,0,0-.19-4.4,8.13,8.13,0,0,1,.34-4.92,39.18,39.18,0,0,1,2.36-4.66,5.79,5.79,0,0,1,.72-.87l3.4,3,1.55,1.36a1.52,1.52,0,0,0,.51.34c1.33.34,2.66.67,4,1a.87.87,0,0,0,1-.91c0-1.84,0-3.69-.09-5.53s-.33-3.74-.51-5.68c.57-.23,1-.4,1.45-.59a9,9,0,0,0,1.62-.79c1.14-.82,1.36-2.08.48-3.48s-2.08-3-3.16-4.48-2-2.63-3-4a17.32,17.32,0,0,1-2.9-6.28A1.38,1.38,0,0,0,118,447a12.71,12.71,0,0,0-1.33-.22,43.64,43.64,0,0,1-6.92-1,7.52,7.52,0,0,1-5.24-4.36,1.58,1.58,0,0,1,.13-1.9c.7,0,1.5.12,2.31.16a14,14,0,0,0,2.33,0,3.94,3.94,0,0,0,3.33-3.7,5.35,5.35,0,0,1,.21-1.45,3.07,3.07,0,0,0-.54-3.2c-.35-.46-1-.86-.63-1.57s1.07-.47,1.66-.58a43.45,43.45,0,0,1,10.06-.35,42.11,42.11,0,0,1,4.95.79l1.09.17a1,1,0,0,0,1.19-.62c.57-1,1.23-2,1.86-3a1.62,1.62,0,0,0,.19-1.62c-.64-1.53-1.22-3.09-1.84-4.64-.37-.94-.82-1.86-1.13-2.83a2.52,2.52,0,0,1,0-1.44c.61-2.06,1.26-4.12,2-6.15a1.8,1.8,0,0,1,.79-.87c1.74-1,3.51-2,5.26-3,2-1.18,4.07-2.38,6.1-3.58A13.11,13.11,0,0,0,147,398.7c1.62-2,3.14-4,4.71-6.05.2-.25.42-.49.69-.8,1,.39,2.06.75,3.07,1.16a2.75,2.75,0,0,0,2.75-.16c3.21-2,6.49-3.88,9.73-5.8a1.29,1.29,0,0,0,.38-.31,2,2,0,0,1,2.57-.5,8,8,0,0,0,5.84-.35,16.21,16.21,0,0,0,7.08-5.23c.32-.42.75-.77,1-1.21a3.93,3.93,0,0,1,3.38-1.67c2-.13,4.09-.29,6.12-.53a3.13,3.13,0,0,0,1.5-.72,39.21,39.21,0,0,0,3.3-2.87,25.33,25.33,0,0,1,5.27-3.51c1-.58,2-1.12,3-1.6a3,3,0,0,1,1.51-.31c2.14.26,4-.56,5.91-1.32a45.41,45.41,0,0,1,7.54-2.52c.64-.14,1.26-.36,1.9-.47.81-.13,1.16,0,1.16.83,0,1.43.81,2.06,2,2.6.81.37,1.51,1,2.49.74a2.37,2.37,0,0,0,.6-.12,55.52,55.52,0,0,1,7.9-2.94,2.67,2.67,0,0,0,1.53-1.13c.8-1.21,1.59-2.44,2.45-3.62a4.68,4.68,0,0,1,1.15-1c.34-.23.75-.35,1.1-.55a3.5,3.5,0,0,0,2.08-3.56c-.05-.66,0-1.32-.07-2a4.62,4.62,0,0,1,1-3.21,2.19,2.19,0,0,0,.46-1.72,2,2,0,0,1,1.46-2.27c1.51-.58,3.06-1.06,4.61-1.55s2.93-.9,4.41-1.31a2.27,2.27,0,0,1,1.21-.06,21.4,21.4,0,0,1,2.38.89,2,2,0,0,1,1.29,2.14,7.38,7.38,0,0,1-1.48,4.34,14.9,14.9,0,0,1-1,1.23,7.65,7.65,0,0,0-1.9,3.9c-.34,1.81-.5,3.65-.72,5.47a3.52,3.52,0,0,0,.13.84c.43,0,.83-.05,1.22-.09l3.05-.35c2.64-.28,5.29-.58,7.93-.83,1-.09,2-.07,3.08-.08s2.22,0,3.33,0,1.17-.15,1.2-1.24c0-.7,0-1.4,0-2.1,0-.4.05-.8.07-1.17a7.53,7.53,0,0,1,3.74-.78c1,0,1.25.29,1.43,1.3a9.91,9.91,0,0,0,.47,1.61,2.9,2.9,0,0,0,3.19,1.94,1.41,1.41,0,0,0,1.37-.85c1-2.25,2.08-4.49,3-6.78a10.85,10.85,0,0,0,.56-2.49,1.67,1.67,0,0,1,1.19-1.28,5.22,5.22,0,0,1,5.61.95,13,13,0,0,1,3.57,5,5.76,5.76,0,0,0,2.53,2.91,30.89,30.89,0,0,1,3.52,2.62,4.9,4.9,0,0,1,.71.95l-3.8,1.34c-.57.21-1.17.37-1.71.63a2,2,0,0,0-1.25,1.78,4.47,4.47,0,0,0,.75,3.47,4.76,4.76,0,0,1,.45,1.06,5.5,5.5,0,0,1-3.15,1.24,37,37,0,0,1-7.35.55,7.47,7.47,0,0,0-1.2.2c1.26,1.19,2.29,2.25,3.95,2.3,1.06,0,2.13,0,3.2.12s2,.19,3,.33a3.42,3.42,0,0,0,2.67-.55c1.18-.88,2.43-1.66,3.6-2.54a14.45,14.45,0,0,1,4-1.95c1.06-.38,2.16-.68,3.19-1.14a3,3,0,0,0,1.11-1.09c.79-1.13,1.52-2.31,2.22-3.4a2.56,2.56,0,0,1,.36-.07c1.51.08,1.7,0,1.6-1.51a43.08,43.08,0,0,0-.6-4.36c-.23-1.33-.65-2.63-.79-4-.32-3.06-.35-6.15-.83-9.18-.42-2.62.67-4.58,2-6.59.47-.73.88-1.5,1.4-2.4-.68,0-1.12,0-1.56,0-1.39.13-2.77.35-4.16.41a2.27,2.27,0,0,0-1.95,1.05c-.44.65-.87,1.32-1.43,2.16a6.2,6.2,0,0,1-.65-2.67,12,12,0,0,0-1.49-5.25,1.43,1.43,0,0,1,.24-1.79c1.41-1.51,2.76-3.08,4.17-4.59a1.79,1.79,0,0,1,1-.59,17.51,17.51,0,0,1,2.71,0,1,1,0,0,1,1,.93c.18,1.34.35,2.67.58,4,.11.68.32,1.34.51,2.1l2.29.66c.42-1.41.8-2.65,1.15-3.89.27-.95.51-1.9.75-2.85.28-1.11.57-2.22.8-3.34a19.81,19.81,0,0,0,.48-3.15,23.69,23.69,0,0,1,1.21-5.61,20.28,20.28,0,0,0,.46-4c.05-.51-.11-1.09.43-1.46v-2.47a4.13,4.13,0,0,0-1.33.11,10.47,10.47,0,0,1-4.12.41,2.3,2.3,0,0,1-2.21-1.45,61.58,61.58,0,0,0-4.14-7.35,2.68,2.68,0,0,0-.49-.69,3.91,3.91,0,0,1-1.31-3.14,1.75,1.75,0,0,0-1-1.65c-2.83-1.56-5.64-3.17-8.44-4.78-1.2-.7-2.35-1.49-3.55-2.17a5.61,5.61,0,0,0-3.55-.59,33.86,33.86,0,0,1-8.71.14,12.86,12.86,0,0,1-2.37-.6c-2.08-.75-4.14-1.56-6.22-2.33a13.93,13.93,0,0,1-6.13-4.5c-1.16-1.47-2.34-2.91-3.49-4.39a2.3,2.3,0,0,0-2.38-1.09,15.72,15.72,0,0,1-3.07.08,3.84,3.84,0,0,1-3.38-1.82q-1.61-2.58-3.27-5.14a2.42,2.42,0,0,0-.74-.72,51.47,51.47,0,0,1-7.06-5,20.53,20.53,0,0,0-4.53-3,15.06,15.06,0,0,1-4.11-3.58c-.63-.7-1.18-1.47-1.85-2.12a4,4,0,0,0-1.5-1c-2.16-.64-4.35-1.16-6.51-1.77-1.48-.41-2.94-.89-4.41-1.32-.78-.23-1.57-.41-2.35-.62-1.46-.37-2.92-.72-4.37-1.12a5.63,5.63,0,0,1-1.09-.56,11.41,11.41,0,0,0-4.62-1.55c-1.66-.14-3.32-.39-5.2-.61-.29-.8-.62-1.74-1-2.69-.11-.3-.2-.62-.32-.92a2.15,2.15,0,0,1,.37-2.6,3.29,3.29,0,0,0,.95-2.65q-.07-3.45,0-6.9c.05-1.38.26-2.77.43-4.15a1.8,1.8,0,0,0-.74-1.78c-1.66-1.38-3.26-2.84-4.84-4.32a4.74,4.74,0,0,1-1.46-4.31c.23-1.78.25-3.6.42-5.39.24-2.61.54-5.21.81-7.81,0-.33.07-.66.09-1a38.2,38.2,0,0,1,1.22-6.87,4.14,4.14,0,0,1,1.37-2.12,11,11,0,0,0,2.07-2.54c2.27-3.85,4.51-7.72,6.68-11.63,1.62-2.91,3-5.94,4.68-8.84a36.13,36.13,0,0,1,2.85-3.94c3.25-4.27,6.57-8.48,9.74-12.81a18.07,18.07,0,0,0,1.74-3.87c1-2.37,1.93-4.76,2.9-7.14a20.22,20.22,0,0,0,1.27-4.58c.19-1.16.42-2.33.66-3.48a29.39,29.39,0,0,0,.88-5.44c0-1.18.35-2.35.37-3.53a28.24,28.24,0,0,0-.25-3.55,10.6,10.6,0,0,1,1.31-7.18c1.56-2.44,3.1-4.88,4.64-7.32a21.52,21.52,0,0,1,4.48-5,17.6,17.6,0,0,0,3.82-4.4,3.68,3.68,0,0,1,1.85-1.48c1.08-.47,2.13-1,3.22-1.45a1,1,0,0,0,.65-1c.06-1.66.8-2.31,2.35-2.76a21.66,21.66,0,0,1,4.86-.48c2.16-.13,4.33-.27,6.49-.35a10.86,10.86,0,0,1,4.39.81,3,3,0,0,0,.86,0c-.26-.63-.43-1.16-.67-1.66a47.58,47.58,0,0,1-2.81-7,2.56,2.56,0,0,1-.1-.48c-.19-1.62-.37-3.25-.56-4.87a14.54,14.54,0,0,0-1.81-5.93,28.06,28.06,0,0,0-3.57-4.62,2.73,2.73,0,0,1-.33-.35c-1.16-1.63-2.88-2.21-4.72-2.73a20,20,0,0,1-4.11-1.87,2.43,2.43,0,0,1-.86-1.29c-.9-2.74-3-4.36-5.23-5.92-.68-.47-1.54-.67-2.27-1.08a5,5,0,0,1-1.53-1.16c-2.06-2.56-4.24-5-5.53-8.12A5.43,5.43,0,0,0,245,35.83a10.75,10.75,0,0,0-1.18-.54L242,38.79c-.5,1-1.1,2-2.29,2.18a5.87,5.87,0,0,1-4-.42,2.07,2.07,0,0,1-.87-1.39A11.36,11.36,0,0,0,233,35c-1.15-2.06-2.36-4.09-3.52-6.13a10.13,10.13,0,0,0-3.25-3.1c-1-.71-2.09-1.38-3.1-2.13a2.41,2.41,0,0,1-.67-1,5.94,5.94,0,0,0-4.65-3.55c-1.61-.3-2.17-1.11-1.67-2.71a2.19,2.19,0,0,0-.22-2,11.3,11.3,0,0,1-1.57-4,3.23,3.23,0,0,0-.9-1.54A5.79,5.79,0,0,1,212,6.64a18.67,18.67,0,0,0-1.54-2.75,6.75,6.75,0,0,1-.93-2.62A4.17,4.17,0,0,0,208.91,0h-3.2c-.42.74-1.26.75-1.9,1A2.68,2.68,0,0,0,201.93,3c-.12.47-.36.92-.5,1.39a2.39,2.39,0,0,1-2.24,1.74,12.67,12.67,0,0,1-1.85,0,16.86,16.86,0,0,0-5.31.85,17.48,17.48,0,0,1-2.38.55c-2.64.46-4.3,2.18-5.64,4.32-.34.54-.57,1.16-.93,1.7a1.43,1.43,0,0,1-2.21.55c-1-.58-2-1.28-2.94-2-.6-.41-1.15-.88-1.71-1.31a17.59,17.59,0,0,0-4.91,2.23c.29.57.58,1.1.83,1.65a6.9,6.9,0,0,1,.28,4.44,7,7,0,0,0-.17,1.71,2.93,2.93,0,0,1-.79,2.12,5.31,5.31,0,0,0-.49.68,1.91,1.91,0,0,0,1,3.07c1.61.67,3.25,1.3,4.86,2a11.33,11.33,0,0,1,1.91,1c1.46,1,2.93,1.9,4.31,2.95a2.75,2.75,0,0,1,1.09,3.45c-.48,1.25-.75,2.58-1.3,3.8a14.52,14.52,0,0,1-1.62,2.41c-.5.68-1,1.33-1.57,2a1.65,1.65,0,0,0-.17,1.64c.34.95.87,1.84,1.15,2.81a7.94,7.94,0,0,1,.33,2.65c-.14,2.29-.39,4.58-.65,6.85-.12,1-.41,2-.58,3s-.24,1.86-.38,2.79-.35,2.09-.56,3.13c-.34,1.72-.69,3.44-1.08,5.15a29.38,29.38,0,0,1-2.08,5.49c-.8,1.74-1.53,3.5-2.28,5.26a2,2,0,0,0-.15.59c-.21,3.15-.43,6.29-.6,9.44a26.88,26.88,0,0,0,0,3.7,8.91,8.91,0,0,1-1.07,4.59l-4.54,10c-.2.44-.35.92-.58,1.34a2.31,2.31,0,0,1-1.44,1.23,15.35,15.35,0,0,0-3,1.11,6.38,6.38,0,0,0-3.58,5c-.43,3.33-.78,6.68-1.26,10a3.67,3.67,0,0,1-2.8,3.42c-2.4.68-4.69,1.74-7,2.63-1.23.46-2.44.94-3.68,1.36a5.36,5.36,0,0,0-2.46,1.52,9.27,9.27,0,0,1-3.6,2.37,26.94,26.94,0,0,0-6.82,4.46,8.34,8.34,0,0,1-2.32,1.26c-1.15.48-2.4.73-3.56,1.21-2.09.86-4.18.57-6.28.16-1.32-.26-2.66-.47-3.95-.8a57.44,57.44,0,0,0-7.13-1,6.39,6.39,0,0,1-3.61-1.87c-.65-.63-1.28-1.27-1.93-1.89a2.09,2.09,0,0,1-.52-2.66c.13-.31.2-.65.35-1.12-.73-.06-1.29-.14-1.85-.14q-5,0-10,0a8,8,0,0,0-3,.47,2.54,2.54,0,0,1-3.27-.87c-.77-1.05-1.64-2-2.47-3a4.86,4.86,0,0,0-3.53-1.62,4.39,4.39,0,0,0-2.56,1,16.89,16.89,0,0,0-3.89,3.12,3.49,3.49,0,0,0-.63,3.79,3.6,3.6,0,0,0,3.1,2.32c1.59.16,3.17.36,4.76.59a10.14,10.14,0,0,1,2.25.55c1.18.49,1.28,1.3.79,2s-1.1,1.71-1.66,2.56c-.15.23-.32.53-.56.63-1.54.68-1.8,2.13-2.1,3.51a1.89,1.89,0,0,1-1.62,1.72c-1.13.22-2.24.49-3.34.73a10.68,10.68,0,0,0-.44,6.71,6.75,6.75,0,0,1,.18,1.33,2.22,2.22,0,0,1-1.62,2.2c-.88.31-1.76.64-2.66.92a1.43,1.43,0,0,0-.89.76,13.55,13.55,0,0,1-.82,1.21,4.55,4.55,0,0,1-2.6,1.69,15.73,15.73,0,0,1-2.38.51c-1.2.22-2.42.33-3.6.62a10,10,0,0,0-2.12.93c-1.36.73-2.69,1.51-4.18,2.35a9.92,9.92,0,0,0,.72,1.32,7.27,7.27,0,0,1,1.61,5.13,10.22,10.22,0,0,0,1.17,5.83,19.63,19.63,0,0,0,5.17,5.57c.68.53,1.62.68,2.38,1.17a6.22,6.22,0,0,1,2.94,4.94,39.4,39.4,0,0,0,.74,5.1c.48,2,1.19,3.89,1.83,5.82.58,1.78,1.2,3.54,1.8,5.3a11,11,0,0,1,.52,1.75,3.42,3.42,0,0,1-.07,1.56c-.34,1.08-.83,2.11-1.21,3.17a2,2,0,0,1-1.27,1.24c-.49.21-1,.38-1.48.59a1.94,1.94,0,0,0-1.37,2.31,4.4,4.4,0,0,0,.39,1.67c1.43,2.47,1.09,5.06.7,7.68a4.75,4.75,0,0,1-1.29,2.56c-1.17,1.29-2.2,2.7-3.31,4A6.11,6.11,0,0,0,60,247.12c.2,2.45.6,4.88,1,7.31.41,2.8,2.17,4.4,4.74,5.31a20.7,20.7,0,0,0,6.89,1.05c1.07,0,2.14.08,3.2,0a2.34,2.34,0,0,1,2.3,1.34c.45.82.83,1.68,1.28,2.5a9.64,9.64,0,0,0,.93,1.42c.73.91,1.07.94,2.07.34.73-.43,1.47-.85,2.21-1.27.11-.06.23-.16.33-.15a4.49,4.49,0,0,0,2.85-1.23,7.75,7.75,0,0,1,2.66-.75,1.94,1.94,0,0,1,1.24.4A7.45,7.45,0,0,1,95,267a15.34,15.34,0,0,1,.58,2.24c.42,1.84.81,3.69,1.22,5.53a13.58,13.58,0,0,0,.49,1.9,5.91,5.91,0,0,0,.81,1.1c.48-.29,1-.43,1.21-.75a6,6,0,0,1,3.47-2,32.23,32.23,0,0,1,6.59-1.4,6.56,6.56,0,0,1,1.47,0,1.36,1.36,0,0,1,1.33,1.48,7.89,7.89,0,0,1-.37,2.52,10.86,10.86,0,0,0-.4,4.73,1.35,1.35,0,0,0,.81,1.13,9.49,9.49,0,0,1,2.17,1.54c1,1,.92,1.78-.18,2.67a12.4,12.4,0,0,0-3.69,4.32,13.19,13.19,0,0,0-.82,2.28c-.4,1.59-.72,3.2-1.08,4.8a3.57,3.57,0,0,1-.11.47c-.84,2.53-2.4,3.51-5.08,3.14a21.54,21.54,0,0,0-5.5,0c-.53.07-1.06.12-1.6.15a34.36,34.36,0,0,0-9.71,2c-2.31.85-4.6,1.8-7,2.55A22.21,22.21,0,0,0,75.42,309a24,24,0,0,0-3,2,4.36,4.36,0,0,0-1.1,1.59c-1.41,3.1-2.84,6.2-4.13,9.35a3.19,3.19,0,0,0,.65,3.75c.5.48,1,1,1.45,1.48a17.37,17.37,0,0,1,4.45,7.22,50.34,50.34,0,0,1,2.08,8.66,3.46,3.46,0,0,0,1,1.9c1.34,1.31,2.8,2.49,4.23,3.72.64.55,1.33,1.06,2,1.64a1.9,1.9,0,0,1,.3,2.38c-.27.55-.6,1.07-.91,1.59a2.37,2.37,0,0,1-1.43,1.07,20,20,0,0,0-4.37,1.4A3.3,3.3,0,0,0,75,361Z"/></g></g></g></svg>